<svg xmlns="http://www.w3.org/2000/svg" viewBox="0 0 960 360" role="img" aria-labelledby="title desc">
  <title id="title">Tweet LDR controls preview</title>
  <desc id="desc">A clean tweet action row preview showing Tweet LDR video and screenshot controls.</desc>
  <rect width="960" height="360" rx="26" fill="#f6f7f9"/>
  <rect x="68" y="60" width="824" height="238" rx="24" fill="#fff" stroke="#d8dee7"/>
  <circle cx="128" cy="122" r="32" fill="#101820"/>
  <rect x="180" y="94" width="230" height="22" rx="11" fill="#111418"/>
  <rect x="180" y="132" width="520" height="20" rx="10" fill="#536471" opacity="0.72"/>
  <rect x="180" y="180" width="610" height="54" rx="14" fill="#eef2f6"/>
  <g transform="translate(210 258)" fill="none" stroke="#536471" stroke-width="5" stroke-linecap="round" stroke-linejoin="round">
    <path d="M0 0c0-12 11-20 24-20s24 8 24 20-11 20-24 20c-4 0-9-1-12-3L0 22l4-12c-3-3-4-6-4-10Z"/>
    <path d="M178-16v22c0 8 6 14 14 14h18"/>
    <path d="M178-16l-13 13m13-13 13 13"/>
    <path d="M378 16c-24-16-34-27-34-42 0-11 8-19 19-19 7 0 13 4 15 9 3-5 8-9 16-9 11 0 19 8 19 19 0 15-11 26-35 42Z"/>
  </g>
  <g transform="translate(640 258)">
    <circle cx="0" cy="0" r="28" fill="#e8f5fe"/>
    <path d="M-12-14h22a7 7 0 017 7v3l10-7v22l-10-7v3a7 7 0 01-7 7h-22a7 7 0 01-7-7V-7a7 7 0 017-7Z" fill="#0f8fd8"/>
  </g>
  <g transform="translate(718 258)">
    <circle cx="0" cy="0" r="28" fill="#e8f5fe"/>
    <path d="M-18-9h9l4-6h10l4 6h9a7 7 0 017 7v16a7 7 0 01-7 7h-36a7 7 0 01-7-7V-2a7 7 0 017-7Zm18 8a10 10 0 100 20 10 10 0 000-20Z" fill="#0f8fd8"/>
  </g>
</svg>
