<svg xmlns="http://www.w3.org/2000/svg" viewBox="0 0 1280 820" role="img" aria-labelledby="title desc">
  <title id="title">Tweet LDR screenshot export preview</title>
  <desc id="desc">A clean tweet card export preview with rounded corners, transparent padding, and a soft shadow.</desc>
  <defs>
    <filter id="shadow" x="-20%" y="-20%" width="140%" height="150%">
      <feDropShadow dx="0" dy="28" stdDeviation="30" flood-color="#0f1419" flood-opacity="0.22"/>
    </filter>
    <linearGradient id="video" x1="0" y1="0" x2="1" y2="1">
      <stop offset="0" stop-color="#cfe8f6"/>
      <stop offset="0.5" stop-color="#8db9c7"/>
      <stop offset="1" stop-color="#263642"/>
    </linearGradient>
  </defs>
  <rect x="90" y="58" width="1100" height="690" rx="36" fill="#fff" filter="url(#shadow)"/>
  <circle cx="158" cy="132" r="42" fill="#101820"/>
  <circle cx="158" cy="120" r="17" fill="#fff"/>
  <path d="M126 164c12-28 52-28 64 0" fill="#fff"/>
  <rect x="218" y="104" width="190" height="27" rx="13.5" fill="#111418"/>
  <circle cx="432" cy="117" r="15" fill="#1d9bf0"/>
  <path d="M424 117l6 6 13-15" fill="none" stroke="#fff" stroke-width="4" stroke-linecap="round" stroke-linejoin="round"/>
  <rect x="462" y="104" width="260" height="27" rx="13.5" fill="#536471" opacity="0.72"/>
  <rect x="218" y="158" width="812" height="31" rx="15.5" fill="#111418"/>
  <rect x="218" y="205" width="612" height="31" rx="15.5" fill="#111418"/>
  <rect x="218" y="272" width="914" height="366" rx="28" fill="url(#video)"/>
  <path d="M218 500c96-64 178-84 244-58 73 29 124 9 186-48 83-77 187-57 312 60 56 52 113 80 172 82v102H218Z" fill="#101820" opacity="0.45"/>
  <circle cx="896" cy="360" r="70" fill="#fff" opacity="0.9"/>
  <path d="M626 398l92 57-92 57Z" fill="#fff" opacity="0.92"/>
  <g fill="#536471" opacity="0.92">
    <rect x="218" y="698" width="62" height="20" rx="10"/>
    <rect x="420" y="698" width="62" height="20" rx="10"/>
    <rect x="622" y="698" width="82" height="20" rx="10"/>
    <rect x="844" y="698" width="92" height="20" rx="10"/>
    <rect x="1040" y="698" width="44" height="20" rx="10"/>
  </g>
</svg>
