<svg xmlns="http://www.w3.org/2000/svg" viewBox="0 0 1280 820" role="img" aria-labelledby="title desc">
  <title id="title">Styled tweet screenshot export</title>
  <desc id="desc">A polished tweet screenshot card with rounded corners, transparent margin, and soft shadow.</desc>
  <defs>
    <filter id="shadow" x="-20%" y="-20%" width="140%" height="140%">
      <feDropShadow dx="0" dy="28" stdDeviation="28" flood-color="#0f1419" flood-opacity="0.24"/>
    </filter>
    <linearGradient id="media" x1="0" y1="0" x2="1" y2="1">
      <stop offset="0" stop-color="#5d6672"/>
      <stop offset="0.45" stop-color="#86a7aa"/>
      <stop offset="1" stop-color="#d1c1a5"/>
    </linearGradient>
  </defs>
  <rect x="92" y="56" width="1096" height="688" rx="34" fill="#fff" filter="url(#shadow)"/>
  <circle cx="156" cy="128" r="40" fill="#1d2b53"/>
  <path d="M133 140c22-54 45-55 70 0-18 18-51 18-70 0Z" fill="#f0c08a"/>
  <circle cx="168" cy="111" r="18" fill="#f0c08a"/>
  <text x="216" y="126" fill="#111418" font-family="Inter, Arial, sans-serif" font-size="31" font-weight="760">Jonathan Blow</text>
  <circle cx="433" cy="116" r="15" fill="#1d9bf0"/>
  <path d="M425 116l6 6 12-14" fill="none" stroke="#fff" stroke-width="4" stroke-linecap="round" stroke-linejoin="round"/>
  <text x="462" y="126" fill="#536471" font-family="Inter, Arial, sans-serif" font-size="29">@Jonathan_Blow · 14h</text>
  <text x="216" y="174" fill="#111418" font-family="Inter, Arial, sans-serif" font-size="34">All these games with $200M budgets, and the hit game of 2026 is</text>
  <rect x="216" y="214" width="916" height="448" rx="24" fill="url(#media)"/>
  <rect x="216" y="214" width="916" height="448" rx="24" fill="#000" opacity="0.08"/>
  <circle cx="850" cy="278" r="88" fill="#f5f3ef" opacity="0.94"/>
  <rect x="318" y="394" width="130" height="268" fill="#f6f2e9" opacity="0.72"/>
  <rect x="616" y="496" width="200" height="166" fill="#7c533e"/>
  <rect x="642" y="526" width="148" height="136" fill="#d9cfb9"/>
  <circle cx="704" cy="556" r="22" fill="#f7f4ed"/>
  <rect x="690" y="578" width="46" height="70" rx="23" fill="#f7f4ed"/>
  <path d="M246 723h30m178 0h30m178 0h30m178 0h30" stroke="#536471" stroke-width="9" stroke-linecap="round"/>
  <text x="292" y="733" fill="#536471" font-family="Inter, Arial, sans-serif" font-size="28">29</text>
  <text x="500" y="733" fill="#536471" font-family="Inter, Arial, sans-serif" font-size="28">16</text>
  <text x="708" y="733" fill="#536471" font-family="Inter, Arial, sans-serif" font-size="28">933</text>
  <text x="916" y="733" fill="#536471" font-family="Inter, Arial, sans-serif" font-size="28">49K</text>
</svg>
